<?xml version="1.0" standalone="no"?>
<!DOCTYPE svg PUBLIC "-//W3C//DTD SVG 20010904//EN"
 "http://www.w3.org/TR/2001/REC-SVG-20010904/DTD/svg10.dtd">
<svg version="1.0" xmlns="http://www.w3.org/2000/svg"
 width="728.000000pt" height="455.000000pt" viewBox="0 0 728.000000 455.000000"
 preserveAspectRatio="xMidYMid meet">

<g transform="translate(0.000000,455.000000) scale(0.100000,-0.100000)"
fill="#000000" stroke="none">
<path d="M307 4524 c26 -40 92 -84 125 -84 41 0 80 23 112 65 40 52 27 53 -17
0 -62 -73 -125 -70 -195 9 -37 42 -50 47 -25 10z"/>
<path d="M1150 4548 c0 -9 36 -180 75 -357 157 -713 290 -1084 418 -1161 51
-31 75 -26 128 29 50 52 86 132 133 295 33 114 166 714 210 951 20 105 39 203
42 219 4 17 2 26 -4 23 -5 -4 -15 -41 -22 -84 -34 -218 -193 -949 -245 -1126
-65 -226 -135 -330 -210 -311 -40 10 -104 90 -152 190 -93 196 -225 667 -319
1134 -21 102 -41 189 -46 195 -4 5 -8 6 -8 3z"/>
<path d="M2218 4085 c-14 -873 -21 -1530 -15 -1525 7 6 30 1712 25 1875 -1 66
-6 -91 -10 -350z"/>
<path d="M2350 4528 c0 -13 12 -101 27 -194 27 -166 28 -178 30 -696 3 -357 7
-528 14 -528 7 0 9 141 7 444 -2 244 -2 444 -1 443 1 -1 15 -71 33 -156 51
-252 115 -422 163 -437 29 -9 62 32 85 109 20 63 81 379 105 542 12 84 13 54
20 -445 9 -704 27 -1093 52 -1118 11 -12 25 16 35 68 25 143 62 619 80 1050
15 362 16 369 23 377 4 3 7 0 7 -8 0 -16 55 -150 90 -220 74 -146 164 -239
233 -239 69 0 141 82 197 223 17 42 53 152 80 244 50 166 60 193 60 157 0 -28
47 -207 76 -294 15 -41 53 -129 85 -195 53 -108 59 -127 59 -183 0 -37 -4 -62
-11 -62 -6 0 -9 -11 -7 -23 1 -13 -5 -32 -15 -41 -16 -17 -17 -16 -17 3 0 11
-4 23 -10 26 -6 4 -10 -7 -10 -24 0 -42 -11 -39 -34 9 -20 41 -34 48 -54 28
-9 -9 -12 -9 -12 3 0 9 -9 24 -20 34 -11 10 -20 26 -20 37 0 10 -5 18 -11 18
-18 0 -1 -121 20 -145 10 -11 26 -45 36 -75 9 -30 24 -62 33 -70 10 -8 18 -33
19 -55 1 -22 7 -41 12 -43 22 -7 3 -182 -20 -182 -4 0 -7 -14 -7 -31 1 -17 -3
-34 -8 -37 -16 -12 -34 -61 -28 -77 4 -8 13 -15 20 -15 8 0 26 -7 39 -16 26
-17 34 -7 13 15 -11 10 -9 11 6 5 13 -5 17 -4 12 4 -4 7 -13 12 -21 12 -9 0
-12 9 -10 28 2 15 4 32 5 37 0 6 10 -1 21 -15 l21 -25 -5 30 c-3 17 -8 38 -13
49 -6 16 -5 17 14 7 26 -14 28 -5 7 19 -14 15 -14 25 -4 66 10 43 38 84 58 84
3 0 6 -90 6 -200 l0 -199 -34 -3 c-37 -3 -42 -10 -62 -77 -14 -46 -14 -46 36
-76 17 -10 16 -16 -3 -100 -14 -59 -28 -96 -41 -106 -11 -9 -35 -29 -52 -43
l-32 -27 6 -85 5 -84 -29 0 c-21 0 -29 5 -29 18 0 10 -6 27 -14 38 -11 15 -12
30 -6 59 6 28 5 42 -3 47 -20 13 -39 9 -53 -9 -13 -17 -14 -17 -8 1 6 16 5 17
-16 6 -18 -10 -20 -14 -9 -21 10 -6 5 -9 -16 -9 -16 0 -39 -7 -49 -15 -19 -15
-19 -15 -1 -29 18 -13 18 -14 -4 -45 -28 -39 -35 -40 -13 -2 23 40 11 48 -24
16 -22 -21 -25 -28 -14 -35 11 -7 11 -13 2 -32 -11 -20 -12 -21 -7 -2 4 16 0
23 -15 27 -17 4 -25 -2 -38 -30 -13 -27 -14 -37 -5 -40 9 -3 8 -12 -5 -31 -20
-31 -22 -142 -3 -207 9 -34 8 -42 -5 -52 -14 -10 -14 -16 5 -57 11 -25 31 -61
45 -79 19 -24 23 -36 15 -44 -8 -8 -6 -20 10 -42 32 -44 61 -63 78 -50 10 9
21 5 45 -13 62 -47 139 -81 162 -71 12 6 62 8 111 5 74 -3 98 -1 130 14 33 16
41 25 43 52 2 17 -1 32 -5 32 -14 0 -39 -23 -51 -45 -10 -17 -11 -18 -12 -2 0
9 -7 17 -14 17 -12 0 -13 6 -5 30 11 31 18 35 35 23 6 -5 -5 6 -24 24 l-34 32
41 36 c22 20 45 53 52 73 13 39 95 152 111 152 5 0 8 8 7 18 -3 31 1 33 25 17
24 -16 25 -15 63 33 21 27 52 56 69 64 l31 14 12 -79 c17 -111 44 -167 81
-167 17 0 56 38 82 80 43 71 86 266 95 438 3 56 7 101 9 99 2 -1 10 -104 19
-227 29 -424 64 -760 85 -815 11 -30 26 -32 40 -5 30 56 74 442 115 1002 13
180 26 331 29 336 3 5 31 14 63 21 107 21 212 97 268 196 10 16 13 16 50 -10
22 -15 70 -42 107 -61 70 -35 73 -39 83 -121 7 -56 26 -90 43 -79 6 4 16 33
23 66 6 33 15 60 20 60 4 0 38 -7 76 -16 102 -24 295 -15 388 18 166 59 333
170 349 231 6 24 -7 39 -16 19 -1 -4 -29 -29 -62 -55 -217 -175 -464 -234
-700 -166 l-39 11 7 61 c8 82 66 758 66 777 0 8 28 30 61 49 33 19 87 56 119
83 33 26 62 48 65 48 3 0 5 -228 5 -506 0 -282 4 -503 9 -500 4 3 6 231 3 511
l-5 506 34 35 34 35 6 -88 5 -88 2 93 2 94 54 61 c73 85 144 186 201 287 27
47 70 108 97 135 36 38 48 58 48 80 l-1 30 -25 -30 -25 -30 15 39 c9 21 16 47
16 57 0 11 5 19 10 19 6 0 10 18 10 40 l0 40 -76 0 c-53 0 -80 -4 -88 -14 -12
-15 -90 -10 -80 5 3 5 -4 9 -15 9 -12 0 -21 -6 -21 -12 0 -9 -3 -9 -9 1 -7 11
-10 9 -13 -10 -2 -17 -9 -24 -25 -23 -12 0 -20 -3 -17 -8 8 -13 -31 -9 -44 4
-7 7 -12 20 -12 30 0 10 -4 18 -10 18 -5 0 -10 -4 -10 -10 0 -5 -7 -10 -15
-10 -19 0 -19 -9 1 -32 25 -27 24 -87 -2 -107 -11 -9 -25 -25 -32 -36 -9 -16
-11 1 -12 88 0 68 -4 107 -11 107 -7 0 -9 -40 -7 -119 2 -86 0 -117 -8 -114
-7 2 -15 0 -19 -6 -10 -17 -26 -13 -23 7 3 18 -16 20 -59 7 -20 -6 -23 -4 -23
19 0 14 11 65 25 112 14 47 25 88 25 90 0 2 -492 4 -1093 4 -946 0 -1096 -2
-1113 -15 -10 -8 -37 -15 -59 -15 -36 -1 -38 -2 -17 -12 12 -6 22 -17 22 -25
0 -9 17 -1 45 22 32 27 50 35 65 30 11 -3 20 -10 20 -15 0 -5 5 -43 11 -85 6
-42 8 -79 5 -82 -3 -3 -37 11 -75 31 -38 20 -75 36 -81 36 -19 0 0 -19 38 -40
20 -10 31 -19 23 -20 -34 -1 -297 78 -288 86 2 3 27 13 55 23 54 20 131 73
114 79 -6 2 -36 -12 -66 -32 -65 -42 -132 -64 -147 -49 -7 7 10 18 56 34 36
13 71 29 77 36 16 20 -86 17 -117 -3 -23 -15 -25 -15 -25 0 0 9 -8 16 -20 16
-16 0 -20 -7 -20 -30 0 -16 -2 -30 -5 -30 -2 0 -27 14 -55 30 -48 28 -57 30
-155 30 l-105 0 5 -27 c3 -16 1 -57 -4 -93 l-8 -65 -2 94 c-2 153 -10 100 -14
-99 -4 -152 -11 -223 -41 -396 -61 -362 -102 -523 -138 -545 -53 -33 -116 134
-189 490 -38 189 -39 201 -41 420 l-2 226 -6 -175 -5 -175 -23 170 c-22 162
-32 208 -32 153z m633 -67 c22 -14 37 -30 37 -42 0 -29 -11 -24 -73 39 -57 58
-80 97 -29 50 15 -13 44 -35 65 -47z m3170 41 c5 -2 -4 -17 -19 -33 -15 -15
-31 -26 -36 -23 -4 3 -6 9 -3 14 3 4 -2 10 -10 14 -8 3 -12 12 -9 20 9 23 44
26 77 8z m-3196 -69 l59 -58 -6 -130 -5 -130 -38 130 c-21 72 -47 156 -57 188
-10 31 -17 57 -15 57 1 0 29 -26 62 -57z m-14 -208 c14 -44 34 -105 45 -135
19 -54 19 -65 6 -345 -34 -753 -78 -1270 -104 -1224 -33 58 -66 1626 -39 1824
19 138 19 138 44 45 13 -47 34 -121 48 -165z m776 202 c-1 -31 -1 -31 -9 -7
-11 36 -11 52 0 45 6 -3 10 -21 9 -38z m1852 -43 c-22 -99 -68 -222 -93 -248
-10 -11 -18 -23 -18 -28 0 -4 -4 -8 -10 -8 -5 0 -10 6 -10 14 0 8 -6 16 -14
19 -31 12 -20 177 13 177 12 0 20 9 91 93 30 36 56 65 57 64 1 -2 -6 -39 -16
-83z m405 70 c10 -8 13 -12 6 -9 -8 4 -19 -1 -27 -11 -13 -18 -14 -17 -15 9 0
31 8 34 36 11z m-329 -74 c-6 -81 -25 -130 -68 -180 -17 -21 -20 -21 -14 -5 4
11 16 47 28 80 11 33 26 64 34 68 10 6 12 20 7 52 -6 41 -1 65 13 65 3 0 3
-36 0 -80z m-1787 23 c38 -28 47 -40 38 -50 -16 -20 -23 -17 -68 37 -50 59
-38 64 30 13z m2410 20 c0 -15 2 -14 15 3 22 29 18 1 -9 -58 -36 -81 -162
-184 -260 -213 -69 -21 -76 -20 -76 15 0 38 35 61 43 29 3 -12 12 -19 19 -17
14 5 15 32 3 60 -5 13 8 34 53 80 58 60 92 75 58 26 -18 -25 -20 -38 -8 -38 5
0 14 12 21 26 7 17 17 24 26 20 24 -9 41 3 69 45 28 41 46 50 46 22z m-3140
-74 c7 -16 11 -32 8 -34 -2 -2 -27 11 -56 31 -39 25 -52 41 -52 59 l0 24 44
-25 c26 -15 49 -36 56 -55z m689 -13 c-2 -1 -23 -1 -46 2 -40 4 -43 6 -37 31
11 52 13 52 50 11 20 -22 35 -42 33 -44z m1621 51 c0 -7 -21 -29 -47 -48 -60
-43 -63 -44 -63 -26 0 8 24 30 53 50 61 42 57 40 57 24z m475 -27 c-10 -11
-23 -20 -28 -20 -6 0 0 11 13 25 27 29 42 25 15 -5z m-2775 -70 c7 -7 64 -32
69 -30 2 1 7 -2 10 -7 3 -5 42 -20 86 -33 89 -26 239 -32 309 -12 22 6 42 9
44 7 6 -5 -67 -270 -105 -383 -36 -107 -86 -205 -128 -247 -107 -106 -233 30
-370 400 l-37 100 7 142 7 142 52 -37 c28 -20 53 -39 56 -42z m800 50 c0 -5
-9 -10 -21 -10 -11 0 -17 5 -14 10 3 6 13 10 21 10 8 0 14 -4 14 -10z m-686
-20 c16 -6 26 -17 26 -30 0 -11 7 -20 15 -20 8 0 15 7 15 15 0 18 -2 18 51 -1
24 -9 96 -26 159 -38 l115 -23 -58 -8 c-82 -11 -212 -2 -278 20 -51 16 -56 21
-66 56 -6 22 -9 39 -7 39 1 0 14 -4 28 -10z m-35 -42 c1 -5 -3 -8 -9 -8 -5 0
-10 12 -9 28 0 24 1 25 9 7 5 -11 9 -23 9 -27z m-29 11 c0 -6 -4 -7 -10 -4 -5
3 -10 11 -10 16 0 6 5 7 10 4 6 -3 10 -11 10 -16z m2517 -31 c-3 -8 -6 -5 -6
6 -1 11 2 17 5 13 3 -3 4 -12 1 -19z m475 -84 c-77 -131 -200 -299 -232 -319
-6 -4 -10 42 -10 123 l0 129 50 6 c56 7 156 55 191 93 33 35 34 23 1 -32z
m-2328 4 l70 -41 -40 -12 c-22 -6 -49 -17 -59 -23 -19 -10 -18 -11 8 -21 16
-6 39 -11 51 -11 48 0 56 -33 31 -120 -8 -30 -17 -93 -20 -139 -2 -46 -6 -85
-8 -87 -7 -7 -88 233 -111 331 -41 170 -41 165 -15 165 13 0 54 -19 93 -42z
m66 21 c0 -11 -3 -11 -24 -3 -23 9 -20 23 4 17 11 -3 20 -9 20 -14z m90 5 c0
-8 -4 -12 -10 -9 -5 3 -10 10 -10 16 0 5 5 9 10 9 6 0 10 -7 10 -16z m30 -16
c0 -23 -3 -29 -11 -21 -6 6 -8 20 -4 32 9 30 15 26 15 -11z m1586 -32 c-4 -18
-15 -41 -25 -50 -19 -17 -81 -39 -89 -31 -3 2 22 33 54 68 33 35 61 59 63 55
1 -5 0 -24 -3 -42z m-1650 13 c28 -30 28 -31 4 -19 -25 13 -40 28 -40 43 0 12
5 8 36 -24z m1861 4 c-3 -3 -11 -2 -17 2 -9 6 -9 10 1 16 14 8 27 -7 16 -18z
m-44 -20 c4 -3 -3 -13 -15 -21 -16 -12 -23 -12 -26 -4 -6 19 -22 14 -22 -6 0
-21 -36 -59 -46 -49 -4 3 -4 17 -1 30 9 33 90 71 110 50z m137 -187 l0 -132
-35 -34 -35 -34 0 144 c0 142 0 144 27 172 14 15 30 25 35 22 4 -3 8 -65 8
-138z m-87 109 c7 -16 -30 -45 -95 -75 -59 -27 -78 -26 -78 4 0 29 55 66 115
76 22 4 43 8 46 9 4 0 9 -6 12 -14z m-232 -22 c-8 -29 -53 -54 -68 -39 -8 8
53 66 68 66 4 0 4 -12 0 -27z m230 -167 l3 -139 -81 -61 c-45 -33 -99 -71
-120 -83 l-39 -21 8 86 c4 48 17 132 29 189 l22 102 36 6 c20 3 59 18 86 34
28 15 51 27 52 27 1 -1 3 -64 4 -140z m-1835 94 c16 -6 25 -20 29 -44 8 -38 0
-60 -17 -50 -15 9 -48 85 -47 109 0 12 3 15 6 7 3 -7 16 -17 29 -22z m1208
-24 c4 -18 4 -40 2 -47 -2 -8 -7 -26 -10 -40 -4 -20 -15 -29 -47 -38 -46 -14
-66 -7 -25 8 38 15 35 44 -4 37 -16 -2 -30 -2 -30 1 0 8 93 111 101 112 4 1
10 -14 13 -33z m383 10 c6 -6 -70 -293 -97 -368 -25 -69 -36 -87 -55 -92 -13
-3 -30 -8 -38 -11 -11 -5 -15 17 -20 125 -6 119 -5 133 13 163 15 24 20 50 20
104 l0 71 63 10 c51 8 105 7 114 -2z m-1605 -98 c10 -13 9 -22 -1 -41 -7 -13
-11 -42 -9 -63 3 -38 2 -39 -31 -42 l-34 -3 6 98 c3 54 9 109 13 123 7 23 8
23 26 -15 10 -22 23 -48 30 -57z m1338 88 c0 -3 -4 -8 -10 -11 -5 -3 -10 -1
-10 4 0 6 5 11 10 11 6 0 10 -2 10 -4z m-1234 -179 c8 3 14 1 14 -5 0 -5 -7
-12 -15 -16 -8 -3 -12 -12 -9 -21 3 -8 2 -15 -3 -15 -5 0 -10 19 -10 43 -1 23
1 34 4 25 2 -10 10 -15 19 -11z m1089 -4 c-3 -10 -18 -65 -31 -123 -34 -144
-35 -146 -44 -129 -4 8 -11 40 -15 72 -5 48 -4 57 9 57 19 0 20 11 4 29 -11
11 -10 13 5 8 14 -5 17 0 17 37 0 35 4 45 23 54 32 16 40 14 32 -5z m-85 -43
c0 -16 -4 -30 -8 -30 -5 0 -7 14 -4 30 2 17 6 30 8 30 2 0 4 -13 4 -30z m202
-42 c4 -92 22 -95 26 -5 2 57 6 67 21 67 16 0 19 -14 24 -132 4 -85 2 -135 -4
-139 -20 -12 -169 -42 -176 -36 -3 4 11 77 31 162 32 131 41 155 56 155 17 0
20 -9 22 -72z m-305 30 c-3 -7 -5 -2 -5 12 0 14 2 19 5 13 2 -7 2 -19 0 -25z
m-896 -45 c0 -15 2 -15 8 2 7 16 9 13 15 -18 4 -21 9 -46 12 -55 3 -11 -1 -9
-12 6 -22 29 -32 28 -73 -10 l-34 -33 36 48 c20 27 33 55 30 63 -3 8 0 14 6
14 6 0 11 -8 12 -17z m69 -57 c18 -106 8 -113 -16 -12 -14 60 -17 86 -8 86 6
0 17 -32 24 -74z m-210 58 c0 -3 -6 -12 -14 -19 -12 -12 -15 -12 -19 -1 -3 8
-3 17 0 20 8 8 33 8 33 0z m54 -29 c5 -24 2 -42 -10 -60 -28 -43 -43 -11 -28
64 9 41 30 39 38 -4z m1580 -23 c-4 -31 -12 -53 -21 -57 -11 -4 -13 -1 -8 12
3 10 11 37 18 60 14 55 20 48 11 -15z m-640 -104 l-29 -113 -3 59 c-2 42 3 78
19 123 37 105 46 60 13 -69z m-38 49 c-28 -57 -35 -132 -13 -140 6 -2 8 -8 4
-13 -10 -10 -47 31 -47 52 0 17 73 165 78 159 3 -2 -7 -29 -22 -58z m119 -58
c-15 -44 -29 -78 -32 -76 -2 3 9 48 24 101 15 54 29 88 31 76 2 -11 -9 -57
-23 -101z m-876 -15 c1 -33 -15 -44 -66 -44 -33 0 -28 24 14 71 33 36 38 39
44 22 4 -10 8 -32 8 -49z m921 24 c0 -5 -4 -8 -10 -8 -5 0 -10 10 -10 23 0 18
2 19 10 7 5 -8 10 -18 10 -22z m504 -5 c-2 -21 -18 -207 -35 -413 -17 -206
-32 -377 -34 -378 -2 -2 -19 2 -38 9 -41 14 -40 10 -57 269 -20 301 -22 267
16 320 19 26 52 86 74 133 36 76 49 93 72 96 3 1 4 -16 2 -36z m-1384 -28 c0
-8 -4 -15 -10 -15 -5 0 -10 7 -10 15 0 8 5 15 10 15 6 0 10 -7 10 -15z m1232
-44 c-15 -27 -28 -49 -29 -47 -1 1 -4 19 -6 40 -4 31 -1 39 17 46 41 17 44 10
18 -39z m-389 1 c-3 -12 -10 -22 -15 -22 -5 0 -7 3 -5 8 2 4 7 16 11 26 9 25
17 16 9 -12z m337 -31 c0 -52 -4 -65 -33 -102 -38 -50 -134 -132 -149 -127 -6
2 -18 24 -28 48 -14 37 -15 50 -5 84 7 23 17 41 24 40 29 -3 32 -5 26 -24 -5
-17 -2 -20 24 -20 16 0 33 5 36 11 13 20 -5 58 -35 76 -17 9 -30 20 -30 23 0
3 37 14 83 26 45 12 83 22 85 22 1 1 2 -25 2 -57z m-1453 17 c-3 -7 -5 -2 -5
12 0 14 2 19 5 13 2 -7 2 -19 0 -25z m213 -13 c0 -8 -4 -15 -9 -15 -5 0 -14 7
-21 15 -10 13 -9 15 9 15 12 0 21 -6 21 -15z m40 1 c0 -8 3 -21 6 -30 7 -18
-4 -20 -25 -7 -8 5 -11 16 -6 30 7 24 25 29 25 7z m-83 -108 c8 -21 19 -38 23
-38 4 0 10 -10 13 -22 6 -21 5 -22 -7 -5 -8 10 -20 15 -30 11 -19 -7 -21 7 -3
25 10 11 9 13 -5 8 -12 -4 -19 3 -27 25 -6 17 -11 40 -11 52 1 21 1 21 16 1 9
-11 22 -37 31 -57z m913 43 c0 -19 -17 -38 -25 -29 -7 7 7 48 16 48 5 0 9 -9
9 -19z m21 -28 c-10 -17 -10 -16 -11 3 0 23 13 41 18 25 2 -6 -1 -18 -7 -28z
m-1067 -52 c-10 -12 -24 16 -23 47 l1 37 13 -40 c7 -22 11 -42 9 -44z m-50 42
c-9 -37 -14 -44 -25 -38 -5 4 -9 19 -9 36 0 22 5 29 20 29 17 0 19 -4 14 -27z
m256 -23 c0 -11 -4 -20 -10 -20 -5 0 -10 9 -10 20 0 11 5 20 10 20 6 0 10 -9
10 -20z m825 10 c3 -5 -1 -10 -10 -10 -9 0 -13 5 -10 10 3 6 8 10 10 10 2 0 7
-4 10 -10z m-1173 -62 c30 -35 33 -44 20 -52 -14 -8 -29 8 -45 47 -20 46 -11
47 25 5z m1193 2 c3 -5 2 -10 -4 -10 -5 0 -13 5 -16 10 -3 6 -2 10 4 10 5 0
13 -4 16 -10z m390 -216 c8 -120 18 -229 20 -241 3 -13 1 -23 -5 -23 -20 0
-107 49 -188 105 -1 1 2 35 8 76 7 55 7 87 -2 124 l-13 50 55 41 c30 23 66 53
79 68 14 14 26 24 28 23 1 -2 10 -102 18 -223z m-1292 191 c1 -5 -6 -11 -15
-13 -11 -2 -18 3 -18 13 0 17 30 18 33 0z m-23 -74 c0 -9 -29 -37 -31 -30 0 2
-3 17 -5 32 -4 26 -3 27 16 17 11 -6 20 -14 20 -19z m1110 -102 c11 -59 4
-142 -13 -136 -6 2 -11 28 -13 58 -3 54 5 143 12 136 2 -2 8 -28 14 -58z
m-1320 47 c0 -3 -4 -8 -10 -11 -5 -3 -10 -1 -10 4 0 6 5 11 10 11 6 0 10 -2
10 -4z m6 -31 c-11 -8 -22 -12 -25 -9 -6 6 19 24 34 24 6 -1 1 -7 -9 -15z
m1154 5 c0 -5 -5 -10 -11 -10 -5 0 -7 5 -4 10 3 6 8 10 11 10 2 0 4 -4 4 -10z
m-1096 -53 c11 -11 10 -19 -5 -48 l-18 -34 -1 48 c0 50 4 55 24 34z m73 -39
c-3 -7 -5 -2 -5 12 0 14 2 19 5 13 2 -7 2 -19 0 -25z m1003 18 c0 -3 -4 -8
-10 -11 -5 -3 -10 -1 -10 4 0 6 5 11 10 11 6 0 10 -2 10 -4z m-1011 -101 c1
-36 -2 -46 -9 -35 -5 8 -9 40 -9 70 1 70 17 38 18 -35z m1057 1 c-10 -25 -15
-50 -11 -56 7 -11 -12 -50 -25 -50 -5 0 -15 6 -23 14 -12 12 -21 11 -66 -11
-28 -14 -54 -23 -57 -20 -3 3 5 22 19 44 13 21 30 53 38 71 8 17 19 32 26 32
7 0 16 6 20 13 4 7 19 21 33 30 23 16 25 16 44 -2 19 -19 19 -21 2 -65z m-955
-16 c7 0 5 -8 -6 -20 -24 -27 -32 -18 -33 37 l-1 48 14 -32 c8 -18 19 -33 26
-33z m-137 -55 c11 -70 11 -83 -2 -103 -22 -33 -32 -11 -32 68 0 67 12 156 17
130 2 -8 9 -51 17 -95z m1187 2 c-26 -43 -98 -110 -141 -132 -44 -23 -48 -13
-7 21 19 16 42 43 52 61 15 26 22 30 33 21 11 -10 18 -7 33 12 10 14 22 35 25
48 4 16 10 20 17 13 6 -6 2 -21 -12 -44z m-319 28 c26 -7 26 -7 10 -36 -21
-36 -25 -36 -51 -3 -26 33 -28 57 -3 50 9 -3 29 -8 44 -11z m-64 -38 l22 -38
-28 17 c-22 13 -28 22 -24 41 2 13 5 23 6 21 2 -2 12 -20 24 -41z m-128 -12
c20 -24 6 -28 -15 -5 -10 11 -13 20 -8 20 6 0 16 -7 23 -15z m-30 -40 c7 -8 9
-22 6 -32 -4 -9 -2 -20 4 -23 8 -5 9 -23 5 -54 -6 -36 -11 -46 -26 -46 -17 0
-19 8 -19 85 0 84 6 99 30 70z m81 -8 c-6 -8 -9 -22 -5 -31 7 -18 -11 -22 -21
-6 -7 12 23 65 32 56 3 -3 1 -12 -6 -19z m68 -63 c2 -2 2 -7 -2 -10 -8 -9 -47
6 -47 17 0 9 37 3 49 -7z m715 4 c23 -10 25 -15 19 -52 -3 -23 -10 -52 -16
-66 l-10 -25 -8 30 c-16 56 -26 125 -18 125 4 0 19 -5 33 -12z m-983 -15 c4
-4 2 -22 -6 -39 -12 -28 -20 -33 -85 -48 -94 -21 -97 -20 -102 8 -4 20 0 26
19 31 14 3 22 11 20 18 -2 7 2 20 10 29 12 13 28 16 75 13 34 -2 64 -7 69 -12z
m425 -8 c-22 -17 -56 -20 -56 -6 0 8 19 14 65 19 6 1 1 -5 -9 -13z m-246 -15
c0 -11 -4 -20 -10 -20 -5 0 -10 9 -10 20 0 11 5 20 10 20 6 0 10 -9 10 -20z
m180 10 c0 -5 -11 -10 -25 -10 -14 0 -25 5 -25 10 0 6 11 10 25 10 14 0 25 -4
25 -10z m-280 -35 c0 -14 -4 -25 -10 -25 -5 0 -10 11 -10 25 0 14 5 25 10 25
6 0 10 -11 10 -25z m135 -15 c-27 -30 -36 -24 -18 11 11 22 18 28 26 20 7 -7
5 -16 -8 -31z m105 1 c0 -5 -11 -11 -25 -13 -24 -5 -32 2 -18 15 9 10 43 8 43
-2z m-536 -23 c9 -34 8 -37 -14 -31 -19 5 -27 33 -13 46 12 12 21 7 27 -15z
m568 -56 c-22 -415 -85 -1059 -118 -1204 -31 -135 -42 -87 -84 342 -20 212
-47 583 -51 704 -2 46 1 71 9 74 7 2 12 -6 12 -19 0 -22 1 -22 30 6 20 19 27
32 20 40 -17 21 58 82 120 97 30 8 57 13 59 11 3 -2 4 -25 3 -51z m-274 1 c-3
-40 -7 -49 -35 -64 -17 -10 -48 -21 -67 -25 -50 -9 -40 13 25 57 34 24 49 41
49 57 0 13 6 22 16 22 12 0 14 -10 12 -47z m-128 28 c0 -14 -40 -61 -52 -61
-6 0 -19 -7 -27 -14 -20 -18 -36 -9 -44 25 -7 26 -4 28 51 42 71 19 72 19 72
8z m80 -1 c0 -5 -7 -10 -15 -10 -8 0 -15 5 -15 10 0 6 7 10 15 10 8 0 15 -4
15 -10z m128 -2 c-2 -6 -18 -22 -36 -36 l-32 -25 0 37 c0 35 1 36 36 36 23 0
34 -4 32 -12z m-158 -32 c0 -2 -7 -9 -15 -16 -13 -11 -14 -10 -9 4 5 14 24 23
24 12z m-200 -62 c0 -2 -7 -4 -15 -4 -8 0 -15 4 -15 10 0 5 7 7 15 4 8 -4 15
-8 15 -10z m-389 -150 c-10 -37 2 -47 23 -18 7 9 18 12 29 8 15 -5 14 -9 -8
-36 -14 -16 -37 -53 -51 -81 -14 -29 -34 -63 -44 -77 l-20 -25 0 75 c0 84 15
197 32 249 l11 35 19 -48 c14 -37 16 -56 9 -82z m665 9 c-20 -318 -67 -519
-139 -595 -31 -33 -38 -34 -61 -9 -21 23 -33 66 -46 154 -8 55 -7 73 5 97 17
34 20 83 5 110 -16 30 7 110 31 110 23 0 23 -1 4 43 -8 19 -21 37 -30 40 -21
9 -19 31 6 53 22 19 22 19 14 -5 -11 -37 9 -17 30 29 14 31 24 40 44 40 14 1
49 9 76 19 28 10 54 19 59 20 5 0 6 -45 2 -106z m-266 77 c0 -5 -4 -10 -9 -10
-6 0 -13 5 -16 10 -3 6 1 10 9 10 9 0 16 -4 16 -10z m-286 -119 c3 -5 -7 -39
-24 -75 -27 -60 -32 -66 -60 -66 -17 0 -30 -5 -31 -12 0 -10 -2 -10 -6 -1 -5
13 94 163 108 163 4 0 10 -4 13 -9z m293 -23 c-3 -7 -5 -2 -5 12 0 14 2 19 5
13 2 -7 2 -19 0 -25z m-45 -180 c-16 -16 -24 -18 -40 -9 -22 12 -35 75 -20
104 8 15 14 11 44 -29 36 -46 36 -47 16 -66z m28 85 c0 -25 0 -26 -20 -8 -11
10 -20 22 -20 27 0 4 9 8 20 8 15 0 20 -7 20 -27z m29 10 c0 -10 -4 -27 -9
-38 -7 -16 -9 -13 -9 18 -1 20 4 37 9 37 6 0 10 -8 9 -17z m-771 -28 c-3 -3
-9 2 -12 12 -6 14 -5 15 5 6 7 -7 10 -15 7 -18z m67 -106 c-8 -19 -12 -25 -9
-14 3 11 9 40 13 65 5 39 6 41 9 14 2 -17 -4 -47 -13 -65z m-15 41 c0 -5 -8
-10 -17 -10 -15 0 -16 2 -3 10 19 12 20 12 20 0z m705 -74 c-4 -19 -14 -41
-23 -48 -14 -11 -15 -10 -7 7 4 11 13 34 19 52 14 41 19 35 11 -11z m-755 9
c11 -13 10 -14 -4 -9 -9 3 -16 10 -16 15 0 13 6 11 20 -6z m585 -15 c27 -30
14 -33 -20 -5 -21 17 -25 24 -14 25 9 0 24 -9 34 -20z m91 -26 c-4 -20 -10
-34 -13 -30 -3 3 -2 21 1 42 4 20 10 34 13 30 3 -3 2 -21 -1 -42z m-666 6 c0
-5 -8 -10 -17 -10 -15 0 -16 2 -3 10 19 12 20 12 20 0z m-70 -10 c0 -5 -7 -10
-15 -10 -8 0 -15 5 -15 10 0 6 7 10 15 10 8 0 15 -4 15 -10z m69 -77 c-4 -27
-8 -54 -8 -60 -1 -7 -5 -13 -10 -13 -6 0 -6 12 0 32 11 41 11 48 0 48 -4 0
-14 -20 -21 -45 -7 -25 -17 -48 -21 -51 -12 -7 -11 -3 6 45 14 41 45 90 56 91
3 0 2 -21 -2 -47z m196 28 c-12 -10 -65 -24 -65 -16 0 7 40 24 60 24 8 1 10
-2 5 -8z m-287 -116 l1 -20 -9 20 c-5 11 -8 34 -8 50 l0 30 8 -30 c4 -16 8
-39 8 -50z m602 60 c7 -8 8 -15 2 -15 -5 0 -15 7 -22 15 -7 8 -8 15 -2 15 5 0
15 -7 22 -15z m-583 -27 c-3 -8 -6 -5 -6 6 -1 11 2 17 5 13 3 -3 4 -12 1 -19z
m241 -8 c-13 -21 -28 -27 -28 -10 0 5 8 14 18 19 23 14 24 14 10 -9z m88 4
c-3 -9 -6 -18 -6 -20 0 -3 -4 -3 -10 1 -11 7 -2 35 12 35 6 0 7 -7 4 -16z m84
12 c0 -2 -8 -10 -17 -17 -16 -13 -17 -12 -4 4 13 16 21 21 21 13z m120 -21 c0
-12 -19 -12 -23 0 -4 9 -1 12 9 8 7 -3 14 -7 14 -8z m-40 -27 c0 -5 -7 -8 -15
-8 -17 0 -18 2 -9 25 5 13 8 14 15 3 5 -7 9 -16 9 -20z m-285 -8 c-3 -5 -12
-10 -18 -10 -7 0 -6 4 3 10 19 12 23 12 15 0z m185 0 c0 -5 -5 -10 -11 -10 -5
0 -7 5 -4 10 3 6 8 10 11 10 2 0 4 -4 4 -10z m160 -15 c-7 -8 -17 -15 -22 -15
-6 0 -5 7 2 15 7 8 17 15 22 15 6 0 5 -7 -2 -15z m-244 -17 c-3 -13 -6 -31 -6
-40 0 -37 -16 -16 -17 22 -2 30 2 40 14 40 11 0 14 -6 9 -22z m95 -11 c-10 -9
-11 -8 -5 6 3 10 9 15 12 12 3 -3 0 -11 -7 -18z m-28 -7 c-3 -12 -8 -19 -11
-16 -5 6 5 36 12 36 2 0 2 -9 -1 -20z m-333 -10 c0 -5 -5 -10 -11 -10 -5 0 -7
5 -4 10 3 6 8 10 11 10 2 0 4 -4 4 -10z m227 -36 c-9 -10 -27 15 -21 31 7 17
8 16 16 -5 5 -13 7 -24 5 -26z m-238 -24 c0 -11 -3 -10 -14 4 -8 11 -15 27
-15 35 0 11 4 10 15 -5 8 -10 14 -26 14 -34z m464 30 c-3 -11 -10 -23 -16 -27
-7 -4 -8 0 -4 11 4 10 7 22 7 27 0 5 4 9 9 9 5 0 7 -9 4 -20z m-433 -26 c12
-19 20 -38 17 -40 -3 -3 -15 12 -27 35 -25 50 -19 54 10 5z m314 -18 c-3 -9
-13 -16 -22 -16 -13 0 -12 3 3 20 20 23 29 21 19 -4z m97 -23 c-15 -28 -80
-87 -87 -80 -4 4 -1 13 6 22 7 8 9 15 5 15 -4 0 -2 6 5 14 6 8 18 12 25 10 8
-3 20 4 27 15 16 25 33 28 19 4z m-261 -13 c0 -5 -2 -10 -4 -10 -3 0 -8 5 -11
10 -3 6 -1 10 4 10 6 0 11 -4 11 -10z m185 0 c-3 -5 -11 -10 -16 -10 -6 0 -7
5 -4 10 3 6 11 10 16 10 6 0 7 -4 4 -10z m25 -120 c12 -8 9 -10 -13 -10 -16 0
-26 4 -22 10 8 12 16 12 35 0z"/>
<path d="M2510 4419 c0 -88 3 -128 11 -124 12 8 9 255 -3 255 -5 0 -8 -59 -8
-131z"/>
<path d="M6360 4514 c0 -32 2 -35 23 -28 l22 6 -23 -25 c-16 -16 -22 -34 -20
-53 3 -26 6 -24 56 41 28 38 52 75 52 82 0 9 -16 13 -55 13 l-55 0 0 -36z"/>
<path d="M6545 4525 c-8 -14 -22 -37 -31 -51 -8 -14 -14 -30 -12 -35 2 -5 18
18 36 51 32 58 38 85 7 35z"/>
<path d="M6561 4470 c-24 -44 -46 -78 -50 -76 -3 2 -7 -10 -8 -27 -2 -25 5
-17 43 49 65 113 75 134 67 134 -5 0 -28 -36 -52 -80z"/>
<path d="M6776 4528 c-3 -13 -6 -38 -6 -55 0 -18 -4 -33 -10 -33 -5 0 -10 -4
-10 -10 0 -27 31 -4 69 49 22 33 41 62 41 65 0 3 -17 6 -39 6 -32 0 -40 -4
-45 -22z"/>
<path d="M7050 4542 c0 -5 27 -26 60 -47 44 -28 59 -44 54 -55 -3 -8 -19 -51
-34 -95 -164 -470 -359 -870 -564 -1155 -47 -64 -66 -100 -66 -121 0 -28 5
-24 65 55 217 284 436 721 602 1201 19 55 36 102 38 104 2 2 20 -7 39 -19 l36
-22 0 81 0 81 -62 0 c-61 0 -61 0 -43 -20 14 -15 16 -23 8 -31 -8 -8 -20 -5
-42 10 -17 13 -31 27 -31 32 0 5 -13 9 -30 9 -16 0 -30 -4 -30 -8z m194 -88
c5 -14 4 -15 -9 -4 -17 14 -19 20 -6 20 5 0 12 -7 15 -16z"/>
<path d="M6450 4371 c0 -5 -21 -46 -46 -91 -25 -45 -44 -83 -41 -86 4 -4 107
168 107 180 0 3 -4 6 -10 6 -5 0 -10 -4 -10 -9z"/>
<path d="M6454 4303 c3 -6 -10 -39 -29 -73 -19 -34 -35 -64 -35 -67 0 -15 22
15 50 68 25 48 29 64 19 73 -9 8 -10 8 -5 -1z"/>
<path d="M7266 4235 c-3 -8 -1 -15 4 -15 6 0 10 7 10 15 0 8 -2 15 -4 15 -2 0
-6 -7 -10 -15z"/>
<path d="M6225 3968 c-115 -201 -125 -220 -106 -203 17 17 222 377 219 386 -2
5 -52 -78 -113 -183z"/>
<path d="M6418 3007 c-30 -35 -48 -65 -48 -81 0 -23 4 -20 51 29 39 41 50 59
47 80 -3 26 -5 25 -50 -28z"/>
<path d="M3440 1456 c0 -2 8 -10 18 -17 15 -13 16 -12 3 4 -13 16 -21 21 -21
13z"/>
<path d="M3234 1270 c-5 -25 -11 -30 -35 -30 -16 0 -29 -4 -29 -10 0 -5 9 -10
20 -10 33 0 23 -19 -42 -86 -55 -56 -68 -64 -100 -64 -42 0 -46 5 -21 32 17
19 23 73 13 123 -4 23 -14 33 -39 41 -44 14 -108 -1 -116 -27 -4 -11 -15 -24
-25 -29 -13 -7 -21 -26 -25 -65 -6 -48 -4 -62 21 -111 21 -41 28 -71 28 -110
0 -30 1 -54 3 -54 1 0 11 16 21 37 l19 36 12 -33 c12 -37 17 -28 -77 -128 -54
-57 -61 -80 -60 -185 1 -58 6 -93 12 -90 5 4 7 -3 4 -15 -11 -40 9 -23 21 19
7 23 15 39 18 36 7 -7 -17 -80 -30 -88 -6 -4 -6 -9 1 -13 5 -3 21 18 35 46 18
37 23 54 15 59 -8 5 -3 21 17 50 l30 42 12 -29 c15 -35 17 -106 3 -120 -6 -6
-7 -27 -1 -57 5 -31 5 -47 -2 -50 -6 -2 -13 -39 -16 -83 -6 -79 -6 -79 -35
-80 -16 -1 -33 -8 -38 -17 -5 -10 -15 -14 -25 -10 -9 4 -21 -1 -29 -12 -11
-15 -17 -16 -26 -7 -10 10 -10 17 0 32 7 11 8 20 4 20 -15 0 -49 -35 -45 -46
4 -13 -64 -77 -76 -70 -10 7 -46 -32 -38 -40 4 -4 13 -1 22 6 8 7 15 9 15 4 0
-4 22 13 48 39 34 33 54 46 65 41 26 -10 21 -17 -33 -47 -53 -30 -55 -33 -40
-57 13 -21 -7 -40 -44 -41 l-31 -1 28 -10 c21 -7 32 -7 40 1 14 14 30 15 22 1
-4 -7 148 -10 449 -10 403 0 456 2 456 15 0 21 29 89 35 83 3 -3 -2 -24 -10
-48 -8 -24 -13 -45 -10 -48 2 -3 8 6 13 19 5 13 19 50 30 81 12 32 47 92 78
134 31 41 53 78 49 82 -3 4 -11 -2 -17 -13 -6 -10 -28 -37 -48 -59 -21 -23
-40 -51 -44 -63 -6 -18 -36 -54 -36 -42 1 27 36 107 60 137 23 29 32 52 36 93
7 65 22 99 44 99 19 0 60 40 60 58 0 7 14 15 30 19 17 3 30 9 30 14 0 16 -55
10 -156 -17 -55 -14 -111 -26 -126 -25 -16 1 -28 -3 -28 -8 0 -5 -22 -14 -49
-20 -63 -13 -171 -68 -171 -87 0 -8 -7 -14 -15 -14 -8 0 -15 -9 -15 -20 0 -13
-7 -20 -20 -20 -19 0 -25 11 -20 35 1 6 -3 6 -9 -1 -6 -5 -13 -36 -15 -69 -3
-40 -9 -61 -20 -67 -9 -5 -16 -18 -16 -28 0 -11 -4 -20 -10 -20 -5 0 -10 5
-10 10 0 6 -4 10 -9 10 -4 0 -3 -15 3 -34 6 -19 15 -32 20 -29 5 3 6 1 2 -5
-9 -15 -46 -16 -46 -1 0 12 -40 48 -54 49 -5 0 -2 -7 5 -16 12 -14 11 -16 -6
-13 -12 3 -21 14 -23 27 -3 20 -13 27 -34 23 -5 0 -8 14 -8 33 0 19 -5 38 -11
42 -12 7 -9 33 15 134 8 36 14 95 13 133 -1 37 1 67 4 67 14 0 16 66 3 85 -8
11 -14 29 -14 42 0 12 -5 25 -11 29 -6 3 -8 17 -5 29 3 13 1 25 -4 27 -7 2 -5
29 7 77 14 57 15 75 5 79 -23 7 -12 21 21 24 28 3 37 12 77 79 62 105 67 109
110 109 21 0 45 3 54 6 30 11 16 24 -26 24 -34 1 -39 3 -26 11 15 8 15 13 5
23 -6 8 -15 12 -19 10 -4 -2 -9 0 -13 6 -12 19 -25 10 -31 -20z m-318 -157
c-10 -10 -19 5 -10 18 6 11 8 11 12 0 2 -7 1 -15 -2 -18z m-6 -40 c0 -20 -3
-24 -11 -16 -7 7 -9 19 -6 27 10 24 17 19 17 -11z m10 -78 c0 -5 -5 -3 -10 5
-5 8 -10 20 -10 25 0 6 5 3 10 -5 5 -8 10 -19 10 -25z m30 -165 c0 -13 -5 -18
-15 -14 -12 5 -13 10 -4 20 15 19 19 18 19 -6z m74 -436 c3 -8 2 -12 -4 -9 -6
3 -10 10 -10 16 0 14 7 11 14 -7z m-20 -109 c-9 -25 -14 -48 -11 -51 3 -3 8 8
12 25 4 17 11 31 16 31 14 0 11 -19 -8 -51 -16 -27 -16 -29 5 -52 26 -27 28
-37 7 -37 -17 0 -35 30 -35 59 0 10 -5 21 -11 23 -8 3 -4 19 10 48 11 24 21
51 22 59 0 11 2 12 6 4 2 -7 -3 -33 -13 -58z m339 18 c-9 -16 -24 -36 -32 -47
-15 -17 -14 -20 5 -33 35 -23 20 -49 -27 -49 -30 0 -38 3 -34 14 3 7 5 20 5
28 0 9 4 13 10 9 5 -3 16 19 25 50 14 47 20 55 41 55 24 0 24 0 7 -27z m65
-77 c-10 -7 -18 -18 -18 -23 0 -5 -9 -18 -20 -28 -25 -22 -26 -13 -3 26 10 16
24 29 31 29 9 0 12 6 7 18 -5 14 -4 15 7 4 11 -11 10 -16 -4 -26z m-418 -62
c0 -8 -4 -12 -10 -9 -5 3 -10 13 -10 21 0 8 5 12 10 9 6 -3 10 -13 10 -21z
m624 -28 c-3 -15 -8 -25 -11 -23 -2 3 -1 17 3 31 3 15 8 25 11 23 2 -3 1 -17
-3 -31z m-304 14 c-20 -13 -33 -13 -25 0 3 6 14 10 23 10 15 0 15 -2 2 -10z
m-495 -100 c-5 -9 -69 -40 -81 -40 -13 0 0 18 24 32 30 19 67 24 57 8z"/>
<path d="M0 448 l0 -448 55 0 c37 0 55 4 55 13 0 9 2 9 8 -1 7 -9 42 -12 140
-10 l132 3 -30 45 c-31 47 -39 67 -70 187 -26 100 -46 136 -71 130 -29 -8 -52
32 -44 76 4 21 3 37 -4 41 -7 5 -11 -4 -11 -23 0 -17 -4 -31 -8 -31 -14 0 -32
48 -32 82 0 26 2 29 15 18 8 -7 15 -8 15 -2 0 14 -26 33 -34 25 -3 -4 -21 9
-38 28 l-31 34 -10 -28 c-5 -15 -13 -27 -19 -27 -17 0 2 139 23 174 26 42 24
64 -11 116 l-30 45 0 -447z m75 52 c3 -5 2 -10 -4 -10 -5 0 -13 5 -16 10 -3 6
-2 10 4 10 5 0 13 -4 16 -10z m4 -142 c1 -5 -3 -8 -7 -8 -8 0 -33 68 -31 86 1
9 37 -65 38 -78z"/>
<path d="M2776 553 c4 -29 2 -44 -10 -55 -14 -14 -13 -17 3 -32 21 -19 38 -22
23 -3 -6 7 -7 31 -3 60 6 35 4 50 -6 59 -11 9 -13 4 -7 -29z"/>
<path d="M3765 420 c4 -6 11 -8 16 -5 14 9 11 15 -7 15 -8 0 -12 -5 -9 -10z"/>
<path d="M2590 101 c0 -12 -5 -31 -10 -42 -7 -13 -7 -19 0 -19 5 0 10 -7 10
-16 0 -8 4 -13 9 -10 10 6 8 92 -2 103 -4 3 -7 -4 -7 -16z"/>
<path d="M425 10 c-3 -5 1 -10 9 -10 9 0 16 5 16 10 0 6 -4 10 -9 10 -6 0 -13
-4 -16 -10z"/>
</g>
</svg>
